<svg xmlns="http://www.w3.org/2000/svg" viewBox="0 0 736.98 421"><defs><style>.cls-1,.cls-5,.cls-7{fill:#73c9c3;}.cls-2,.cls-3{fill:#9dd8d1;}.cls-2,.cls-4,.cls-6,.cls-7{stroke:#73c9c3;stroke-width:2px;}.cls-13,.cls-2,.cls-4,.cls-6,.cls-7{stroke-miterlimit:10;}.cls-4{fill:#f8fcf8;}.cls-5{font-size:24px;letter-spacing:0.04em;}.cls-14,.cls-19,.cls-5{font-family:TrebuchetMS-Bold, Trebuchet MS;font-weight:700;}.cls-6{fill:#1f1000;}.cls-8{fill:#606060;}.cls-9{fill:#b3b3b3;}.cls-10{fill:#ed1c24;}.cls-10,.cls-11,.cls-12{opacity:0.25;}.cls-11{fill:#e6e6e6;}.cls-12{fill:#f2f2f2;}.cls-13{fill:none;stroke:gray;}.cls-14{font-size:12px;fill:#4d4d4d;letter-spacing:0.04em;}.cls-15{fill:gray;}.cls-16{fill:#edf8ee;}.cls-17{fill:#ccc;}.cls-18{fill:#030703;}.cls-19{font-size:16px;fill:#4cb859;letter-spacing:0.04em;}</style></defs><g id="Layer_2" data-name="Layer 2"><g id="Layer_1-2" data-name="Layer 1"><rect class="cls-1" x="608" y="355" width="23" height="3"/><rect class="cls-1" x="645" y="355" width="23" height="3"/><rect class="cls-1" x="683" y="355" width="23" height="3"/><path class="cls-2" d="M171.64,1H710.36A23.64,23.64,0,0,1,734,24.64V316a0,0,0,0,1,0,0H148a0,0,0,0,1,0,0V24.64A23.64,23.64,0,0,1,171.64,1Z"/><path class="cls-1" d="M479.67,181s-86.67.15-86.67.33A798.24,798.24,0,0,1,402,295a798.13,798.13,0,0,1-9,125.67.31.31,0,0,0,.1.23.33.33,0,0,0,.23.1h86.34a.33.33,0,0,0,.33-.33A815.94,815.94,0,0,1,479.67,181Z"/><rect class="cls-3" x="304" y="410" width="269" height="11"/><path class="cls-4" d="M148,316H734a0,0,0,0,1,0,0v19a20,20,0,0,1-20,20H168a20,20,0,0,1-20-20V316A0,0,0,0,1,148,316Z"/><text class="cls-5" transform="translate(421.99 345.41)">TM</text><rect class="cls-6" x="166" y="18" width="549" height="292"/><path class="cls-1" d="M704.85,393.21a3.65,3.65,0,0,0-6.64-.15c-18.81.92-33.75,13-34.19,27.94h73C736.56,406.63,722.68,394.87,704.85,393.21Z"/><rect class="cls-1" x="698" y="394" width="1" height="12"/><path class="cls-3" d="M736.78,421c-.46-15.52-16.61-28-36.48-28s-36,12.48-36.48,28Z"/><rect class="cls-1" x="701" y="393" width="1" height="14"/><path class="cls-4" d="M43,305v18c-23.24.26-42,18.06-42,40s18.76,39.73,42,40v17h88V305ZM13.41,363c0-16.34,12.87-29.83,29.59-32v64C26.28,392.83,13.41,379.34,13.41,363Z"/><ellipse class="cls-7" cx="87" cy="305" rx="44" ry="3"/><path class="cls-7" d="M85.25,352.47c-.91,1.71-1.88,3.4-2.89,5.08-1.38-1.5-3.62-2.36-6.79-2.78a10.19,10.19,0,0,0-8.13,2.39,15.18,15.18,0,0,0-5.15,8.5c-.9,3.69-.59,6.89,1.11,9.53A11.12,11.12,0,0,0,71.63,380c4.28.58,7.78-.36,10.26-2.62q1.69,2.64,3.53,5.24c-3.39,2.64-8.6,3.77-15.23,2.83s-11.42-3.77-14-7.84S53.3,368.75,55,363.37a20.66,20.66,0,0,1,8.46-11.28,17.15,17.15,0,0,1,12.48-2.92C79.83,349.7,82.89,350.72,85.25,352.47Z"/><path class="cls-7" d="M121,359.16c-1.87.58-3.74,1.11-5.63,1.59-.09,2.7-.25,5.4-.45,8.1,1.45-.34,2.9-.7,4.34-1.1.38,1.42.77,2.83,1.16,4.24-2,.54-3.94,1-5.92,1.46-.43,3.64-1,7.3-1.61,10.95q-3.14.59-6.28,1c.79-3.61,1.49-7.23,2.07-10.84q-3.41.57-6.83.95-1.2,5.37-2.69,10.71-3.17.25-6.33.35c1.16-3.5,2.23-7,3.19-10.56-1.39.08-2.79.14-4.18.18l-.12-4.39c1.82-.05,3.63-.14,5.45-.27.6-2.64,1.16-5.28,1.66-7.93-1.41.13-2.81.24-4.22.32l-.24-4.39q2.64-.15,5.28-.42c.59-3.29,1.09-6.57,1.5-9.86,1.5-.2,3-.44,4.48-.71q-.35,4.95-1,9.91,2.93-.47,5.84-1.09c.24-3.32.39-6.65.46-10,1.48-.36,3-.75,4.41-1.19.12,3.31.16,6.62.11,9.95,1.4-.37,2.8-.78,4.18-1.21Zm-10.64,2.74q-3.15.64-6.31,1.1-.57,4-1.31,8,3.38-.4,6.73-1C109.83,367.29,110.13,364.59,110.37,361.9Z"/><rect class="cls-8" x="423" y="19" width="290" height="290"/><rect class="cls-9" x="423" y="19" width="290" height="10"/><rect class="cls-10" x="702" y="19" width="11" height="10"/><rect class="cls-11" x="691" y="19" width="11" height="10"/><rect class="cls-12" x="680" y="19" width="11" height="10"/><line class="cls-13" x1="681" y1="27.5" x2="690" y2="27.5"/><rect class="cls-13" x="693.5" y="20.5" width="6" height="7"/><line class="cls-13" x1="704.75" y1="21.25" x2="711.25" y2="27.75"/><line class="cls-13" x1="704.65" y1="27.65" x2="711.3" y2="20.99"/><text class="cls-14" transform="translate(431.49 47.49)">150</text><text class="cls-14" transform="translate(431.49 65.41)">151</text><text class="cls-14" transform="translate(431.49 83.33)">152</text><text class="cls-14" transform="translate(431.49 101.25)">153</text><text class="cls-14" transform="translate(431.49 119.17)">154</text><text class="cls-14" transform="translate(431.49 137.09)">155</text><text class="cls-14" transform="translate(431.49 155.01)">156</text><text class="cls-14" transform="translate(431.49 172.93)">157</text><text class="cls-14" transform="translate(431.49 190.85)">158</text><text class="cls-14" transform="translate(431.49 208.77)">159</text><text class="cls-14" transform="translate(431.49 226.69)">160</text><text class="cls-14" transform="translate(431.49 244.6)">161</text><text class="cls-14" transform="translate(431.49 262.52)">162</text><text class="cls-14" transform="translate(431.49 280.44)">163</text><text class="cls-14" transform="translate(431.49 298.36)">164</text><rect class="cls-15" x="462" y="39" width="221" height="8" rx="3.63"/><rect class="cls-15" x="462" y="57" width="86" height="8" rx="3.63"/><rect class="cls-15" x="551" y="57" width="143" height="8" rx="3.63"/><rect class="cls-15" x="611" y="129" width="86" height="8" rx="3.63" transform="translate(1308 266) rotate(180)"/><rect class="cls-15" x="462" y="129" width="143" height="8" rx="3.63" transform="translate(1067 266) rotate(180)"/><rect class="cls-15" x="462" y="75" width="171" height="8" rx="3.63"/><rect class="cls-15" x="462" y="93" width="60" height="8" rx="3.63"/><rect class="cls-15" x="526" y="93" width="71" height="8" rx="3.63"/><rect class="cls-15" x="462" y="147" width="221" height="8" rx="3.63"/><rect class="cls-15" x="462" y="165" width="86" height="8" rx="3.63"/><rect class="cls-15" x="551" y="165" width="143" height="8" rx="3.63"/><rect class="cls-15" x="462" y="183" width="171" height="8" rx="3.63"/><rect class="cls-15" x="462" y="201" width="60" height="8" rx="3.63"/><rect class="cls-15" x="526" y="201" width="71" height="8" rx="3.63"/><rect class="cls-15" x="462" y="219" width="171" height="8" rx="3.63"/><rect class="cls-15" x="462" y="237" width="60" height="8" rx="3.63"/><rect class="cls-15" x="526" y="237" width="71" height="8" rx="3.63"/><rect class="cls-15" x="462" y="255" width="171" height="8" rx="3.63"/><rect class="cls-15" x="462" y="291" width="86" height="8" rx="3.63"/><rect class="cls-15" x="551" y="291" width="143" height="8" rx="3.63"/><rect class="cls-16" x="166" y="19" width="257" height="290"/><rect class="cls-8" x="185" y="40" width="179" height="112"/><path class="cls-9" d="M294.54,116l-14.3-24,14.3-24,7,24Zm-31.62-2.32L245,96.05h28.64l14.3,24Zm0-43.62,25-6.32-14.3,24h-29c0,.34,18.31-17.65,18.31-17.65Zm36.62-18-32.61,8.32-5,8.33h-9.67l-24,23.3,24,23.3h9.67l4.65,8.32L299.22,132l8.64-31.62-4.65-8.33,5-8.32Z"/><rect class="cls-9" x="185" y="30" width="179" height="10"/><rect class="cls-10" x="353" y="30" width="11" height="10"/><rect class="cls-11" x="342" y="30" width="11" height="10"/><rect class="cls-12" x="331" y="30" width="11" height="10"/><line class="cls-13" x1="332" y1="38.5" x2="341" y2="38.5"/><rect class="cls-13" x="344.5" y="31.5" width="6" height="7"/><line class="cls-13" x1="355.75" y1="32.25" x2="362.25" y2="38.75"/><line class="cls-13" x1="355.65" y1="38.65" x2="362.3" y2="31.99"/><rect class="cls-9" x="186" y="140" width="177" height="11"/><rect class="cls-17" x="187" y="141" width="111" height="9"/><rect class="cls-18" x="286" y="177.21" width="197.34" height="125.52"/><rect class="cls-9" x="286" y="166" width="197.34" height="11.21"/><rect class="cls-10" x="471.21" y="166" width="12.13" height="11.21"/><rect class="cls-11" x="459.08" y="166" width="12.13" height="11.21"/><rect class="cls-12" x="446.95" y="166" width="12.13" height="11.21"/><line class="cls-13" x1="448.06" y1="175.53" x2="457.98" y2="175.53"/><rect class="cls-13" x="461.84" y="167.68" width="6.61" height="7.84"/><line class="cls-13" x1="474.24" y1="168.52" x2="481.41" y2="175.81"/><line class="cls-13" x1="474.13" y1="175.69" x2="481.46" y2="168.23"/><text class="cls-19" transform="translate(290.76 193.51) scale(1.14 1)">&gt;_</text></g></g></svg>