<svg xmlns="http://www.w3.org/2000/svg" viewBox="0 0 158 248"><defs><style>.cls-1{fill:#73c9c3;}.cls-2{fill:#9dd8d1;}.cls-2,.cls-4{stroke:#73c9c3;stroke-miterlimit:10;stroke-width:2px;}.cls-3{fill:#fffbc9;}.cls-4{fill:#030703;}</style></defs><g id="Layer_2" data-name="Layer 2"><g id="Layer_1-2" data-name="Layer 1"><rect class="cls-1" x="77" width="5" height="80"/><path class="cls-2" d="M79,120c-39.76,0-72,41.19-72,92H151C151,161.19,118.76,120,79,120Z"/><rect class="cls-1" y="212" width="158" height="16" rx="5.95"/><path class="cls-2" d="M79,65C63.54,65,51,78.43,51,95v33h56V95C107,78.43,94.46,65,79,65Z"/><path class="cls-3" d="M79.08,248c15.46,0,28-8.95,28-20h-56C51.08,239.05,63.61,248,79.08,248Z"/><path class="cls-4" d="M108,150H50.25C35.75,150,24,161,24,174.5S35.75,199,50.25,199H108c14.5,0,26.25-11,26.25-24.5S122.5,150,108,150Z"/><circle class="cls-3" cx="48.5" cy="174.5" r="19.5"/></g></g></svg>