<svg xmlns="http://www.w3.org/2000/svg" viewBox="0 0 133 89"><defs><style>.cls-1{fill:#4cb859;}.cls-2{fill:#030703;}</style></defs><g id="Layer_2" data-name="Layer 2"><g id="Layer_1-2" data-name="Layer 1"><path class="cls-1" d="M4,49.15V39.5l39.8-17.73V33.06L16.35,44.23l.35-.63V45l-.35-.55L43.77,55.6V66.81Z"/><path class="cls-1" d="M54.94,67,55,22H66V34.84l-.47-.26a17.23,17.23,0,0,1,3-6.48,12.27,12.27,0,0,1,4.63-3.7,13.44,13.44,0,0,1,5.59-1.2,10.18,10.18,0,0,1,7.62,2.95q2.88,3,4.25,9.13H89.24a16.56,16.56,0,0,1,3.18-6.81,13.65,13.65,0,0,1,5.24-4A16,16,0,0,1,104,23.2a14.58,14.58,0,0,1,7.17,1.74,12.47,12.47,0,0,1,5,5,16.19,16.19,0,0,1,1.82,8V67H106.19V40.1c0-2.44-.66-4.26-2-5.44a7.15,7.15,0,0,0-4.92-1.77,7.42,7.42,0,0,0-3.81.94A6.37,6.37,0,0,0,93,36.47a8.52,8.52,0,0,0-.88,4V67H80.76V39.79a6.76,6.76,0,0,0-1.89-5A6.69,6.69,0,0,0,74,32.89a7.5,7.5,0,0,0-3.73.92,6.59,6.59,0,0,0-2.61,2.72,9.2,9.2,0,0,0-1,4.38V67Z"/><rect class="cls-2" x="129" width="4" height="89"/><polygon class="cls-1" points="66 0 0 0 0 11 32.03 11 32.03 21.5 43.5 16.5 43.5 11 66 11 66 0"/></g></g></svg>